<svg xmlns="http://www.w3.org/2000/svg" xmlns:svg="http://www.w3.org/2000/svg" id="svg588" version="1.1" viewBox="0 0 108 108"><defs id="defs569"><linearGradient id="b" x1="-179" x2="-105.2" y1="-140" y2="-140" gradientUnits="userSpaceOnUse"><stop id="stop559" offset="0" stop-color="#198eff" stop-opacity=".1"/><stop id="stop561" offset="1" stop-color="#198eff"/></linearGradient><linearGradient id="a" x1="142" x2="116" y1="124" y2="54" gradientUnits="userSpaceOnUse"><stop id="stop564" offset="0" stop-color="#c269ff" stop-opacity="0"/><stop id="stop566" offset="1" stop-color="#c269ff"/></linearGradient></defs><g id="md-adaptive" fill="none" stroke="#fff" transform="translate(-96.199,-13.743)"><g id="g575" transform="translate(-30.196,-26.665)"><path id="path571" stroke-width=".099" d="m164.43 68.457h31.939c5.9886 0 9.981 4.8963 9.981 10.772v30.357c0 5.8756-3.9924 10.772-9.981 10.772h-31.939c-5.9886 0-9.981-4.8963-9.981-10.772v-30.357c0-5.8756 3.9924-10.772 9.981-10.772z"/><path id="path573" stroke-width=".099" d="m206.33 94.897a25.931 25.461 0 01-25.931 25.461 25.931 25.461 0 01-25.931-25.461 25.931 25.461 0 0125.931-26.44 25.931 25.461 0 0125.931 26.44z"/></g><path id="path577" stroke-width=".1" d="m179.2 39.243-58 57m0-57 58 57m-58-57.5h58v58h-58z"/></g><g id="container"><rect id="base" width="72" height="72" x="18" y="18" fill="#c269ff" stroke-width="1.241" style="fill:#f6ebf9;fill-opacity:1"/><rect id="base-circle" width="72" height="72" x="18" y="18" fill="#c269ff" stroke-width="1.241" ry="36" style="fill:#f6ebf9;fill-opacity:1"/><g id="logo" transform="matrix(.25795 0 0 .27273 20.248 20.727)"><path id="path582" fill="url(#a)" d="m123 56h3a29 29 45 0129 29v5a76 76 135 01-76 76 8 8 62 01-6-10v-51a50 50 135 0150-49z"/><path id="path584" fill="url(#b)" d="m-138-189h4a33 33 45 0133 32v5a79 79 135 01-79 79h-3a5 5 45 01-5-5v-61a50 50 135 0150-50z" transform="matrix(0,-1,-1,0,0,0)"/></g></g></svg>